<svg width="25" height="23" viewBox="0 0 25 23" fill="none" xmlns="http://www.w3.org/2000/svg">
<path d="M16.2915 7.12533L20.0831 3.33366M22.2498 1.16699L20.0831 3.33366L22.2498 1.16699ZM11.839 11.5778C12.3983 12.1297 12.843 12.7869 13.1474 13.5113C13.4517 14.2358 13.6098 15.0134 13.6124 15.7992C13.6151 16.585 13.4622 17.3636 13.1627 18.0901C12.8632 18.8166 12.423 19.4767 11.8673 20.0323C11.3116 20.588 10.6516 21.0282 9.92505 21.3277C9.19855 21.6272 8.41998 21.7801 7.63416 21.7774C6.84835 21.7748 6.07081 21.6168 5.34633 21.3124C4.62185 21.008 3.96473 20.5634 3.41281 20.004C2.32745 18.8802 1.72688 17.3752 1.74046 15.8129C1.75404 14.2506 2.38067 12.7562 3.48539 11.6515C4.59011 10.5468 6.08454 9.92014 7.64679 9.90656C9.20905 9.89298 10.7141 10.4936 11.8379 11.5789L11.839 11.5778ZM11.839 11.5778L16.2915 7.12533L11.839 11.5778ZM16.2915 7.12533L19.5415 10.3753L23.3331 6.58366L20.0831 3.33366L16.2915 7.12533Z" stroke="#7A9CA5" stroke-width="2" stroke-linecap="round" stroke-linejoin="round"/>
</svg>
